<svg width="1000" height="1000" viewBox="0 0 1000 1000" fill="none" xmlns="http://www.w3.org/2000/svg">
<path d="M78.05 0H15.7891V15.5659H62.4848V62.2635H78.05V0Z" fill="#FF5500"/>
<path d="M15.7845 46.4785H0V78.0487H31.5689V62.2636H15.7845V46.4785Z" fill="#1B0B3B"/>
<path d="M180.489 0H118.229V15.5659H164.924V62.2635H180.489V0Z" fill="#1B0B3B"/>
<path d="M118.224 46.4785H102.439V78.0487H134.008V62.2636H118.224V46.4785Z" fill="#FF5500"/>
<path d="M78.05 102.438H15.7891V118.003H62.4848V164.701H78.05V102.438Z" fill="#FF5500"/>
<path d="M15.7845 148.916H0V180.486H31.5689V164.701H15.7845V148.916Z" fill="#1B0B3B"/>
<path d="M180.489 102.438H118.229V118.003H164.924V164.701H180.489V102.438Z" fill="#1B0B3B"/>
<path d="M118.224 148.916H102.439V180.486H134.008V164.701H118.224V148.916Z" fill="#FF5500"/>
<path d="M78.05 204.875H15.7891V220.441H62.4848V267.138H78.05V204.875Z" fill="#FF5500"/>
<path d="M15.7845 251.354H0V282.924H31.5689V267.139H15.7845V251.354Z" fill="#1B0B3B"/>
<path d="M180.489 204.875H118.229V220.441H164.924V267.138H180.489V204.875Z" fill="#1B0B3B"/>
<path d="M118.224 251.354H102.439V282.924H134.008V267.139H118.224V251.354Z" fill="#FF5500"/>
<path d="M78.05 307.316H15.7891V322.882H62.4848V369.58H78.05V307.316Z" fill="#FF5500"/>
<path d="M15.7845 353.795H0V385.365H31.5689V369.58H15.7845V353.795Z" fill="#1B0B3B"/>
<path d="M180.489 307.316H118.229V322.882H164.924V369.58H180.489V307.316Z" fill="#1B0B3B"/>
<path d="M118.224 353.795H102.439V385.365H134.008V369.58H118.224V353.795Z" fill="#FF5500"/>
<path d="M78.05 409.756H15.7891V425.322H62.4848V472.019H78.05V409.756Z" fill="#FF5500"/>
<path d="M15.7845 456.234H0V487.805H31.5689V472.019H15.7845V456.234Z" fill="#1B0B3B"/>
<path d="M180.489 409.756H118.229V425.322H164.924V472.019H180.489V409.756Z" fill="#1B0B3B"/>
<path d="M118.224 456.234H102.439V487.805H134.008V472.019H118.224V456.234Z" fill="#FF5500"/>
<path d="M78.05 512.195H15.7891V527.761H62.4848V574.459H78.05V512.195Z" fill="#FF5500"/>
<path d="M15.7845 558.674H0V590.244H31.5689V574.459H15.7845V558.674Z" fill="#1B0B3B"/>
<path d="M180.489 512.195H118.229V527.761H164.924V574.459H180.489V512.195Z" fill="#1B0B3B"/>
<path d="M118.224 558.674H102.439V590.244H134.008V574.459H118.224V558.674Z" fill="#FF5500"/>
<path d="M78.05 614.633H15.7891V630.199H62.4848V676.896H78.05V614.633Z" fill="#FF5500"/>
<path d="M15.7845 661.111H0V692.682H31.5689V676.896H15.7845V661.111Z" fill="#1B0B3B"/>
<path d="M180.489 614.633H118.229V630.199H164.924V676.896H180.489V614.633Z" fill="#1B0B3B"/>
<path d="M118.224 661.111H102.439V692.682H134.008V676.896H118.224V661.111Z" fill="#FF5500"/>
<path d="M78.05 717.074H15.7891V732.64H62.4848V779.338H78.05V717.074Z" fill="#FF5500"/>
<path d="M15.7845 763.553H0V795.123H31.5689V779.338H15.7845V763.553Z" fill="#1B0B3B"/>
<path d="M180.489 717.074H118.229V732.64H164.924V779.338H180.489V717.074Z" fill="#1B0B3B"/>
<path d="M118.224 763.553H102.439V795.123H134.008V779.338H118.224V763.553Z" fill="#FF5500"/>
<path d="M78.05 819.514H15.7891V835.08H62.4848V881.777H78.05V819.514Z" fill="#FF5500"/>
<path d="M15.7845 865.992H0V897.562H31.5689V881.777H15.7845V865.992Z" fill="#1B0B3B"/>
<path d="M180.489 819.514H118.229V835.08H164.924V881.777H180.489V819.514Z" fill="#1B0B3B"/>
<path d="M118.224 865.992H102.439V897.562H134.008V881.777H118.224V865.992Z" fill="#FF5500"/>
<path d="M78.05 921.951H15.7891V937.517H62.4848V984.215H78.05V921.951Z" fill="#FF5500"/>
<path d="M15.7845 968.43H0V1000H31.5689V984.215H15.7845V968.43Z" fill="#1B0B3B"/>
<path d="M180.489 921.951H118.229V937.517H164.924V984.215H180.489V921.951Z" fill="#1B0B3B"/>
<path d="M118.224 968.43H102.439V1000H134.008V984.215H118.224V968.43Z" fill="#FF5500"/>
<path d="M282.925 0H220.664V15.5659H267.36V62.2635H282.925V0Z" fill="#FF5500"/>
<path d="M220.659 46.4785H204.875V78.0487H236.444V62.2636H220.659V46.4785Z" fill="#1B0B3B"/>
<path d="M385.366 0H323.105V15.5659H369.801V62.2635H385.366V0Z" fill="#1B0B3B"/>
<path d="M323.101 46.4785H307.316V78.0487H338.885V62.2636H323.101V46.4785Z" fill="#FF5500"/>
<path d="M282.925 102.438H220.664V118.003H267.36V164.701H282.925V102.438Z" fill="#FF5500"/>
<path d="M220.659 148.916H204.875V180.486H236.444V164.701H220.659V148.916Z" fill="#1B0B3B"/>
<path d="M385.366 102.438H323.105V118.003H369.801V164.701H385.366V102.438Z" fill="#1B0B3B"/>
<path d="M323.101 148.916H307.316V180.486H338.885V164.701H323.101V148.916Z" fill="#FF5500"/>
<path d="M282.925 204.875H220.664V220.441H267.36V267.138H282.925V204.875Z" fill="#FF5500"/>
<path d="M220.659 251.354H204.875V282.924H236.444V267.139H220.659V251.354Z" fill="#1B0B3B"/>
<path d="M385.366 204.875H323.105V220.441H369.801V267.138H385.366V204.875Z" fill="#1B0B3B"/>
<path d="M323.101 251.354H307.316V282.924H338.885V267.139H323.101V251.354Z" fill="#FF5500"/>
<path d="M282.925 307.316H220.664V322.882H267.36V369.58H282.925V307.316Z" fill="#FF5500"/>
<path d="M220.659 353.795H204.875V385.365H236.444V369.58H220.659V353.795Z" fill="#1B0B3B"/>
<path d="M385.366 307.316H323.105V322.882H369.801V369.58H385.366V307.316Z" fill="#1B0B3B"/>
<path d="M323.101 353.795H307.316V385.365H338.885V369.58H323.101V353.795Z" fill="#FF5500"/>
<path d="M282.925 409.756H220.664V425.322H267.36V472.019H282.925V409.756Z" fill="#FF5500"/>
<path d="M220.659 456.234H204.875V487.805H236.444V472.019H220.659V456.234Z" fill="#1B0B3B"/>
<path d="M385.366 409.756H323.105V425.322H369.801V472.019H385.366V409.756Z" fill="#1B0B3B"/>
<path d="M323.101 456.234H307.316V487.805H338.885V472.019H323.101V456.234Z" fill="#FF5500"/>
<path d="M282.925 512.193H220.664V527.759H267.36V574.457H282.925V512.193Z" fill="#FF5500"/>
<path d="M220.659 558.672H204.875V590.242H236.444V574.457H220.659V558.672Z" fill="#1B0B3B"/>
<path d="M385.366 512.193H323.105V527.759H369.801V574.457H385.366V512.193Z" fill="#1B0B3B"/>
<path d="M323.101 558.672H307.316V590.242H338.885V574.457H323.101V558.672Z" fill="#FF5500"/>
<path d="M282.925 614.633H220.664V630.199H267.36V676.896H282.925V614.633Z" fill="#FF5500"/>
<path d="M220.659 661.111H204.875V692.682H236.444V676.896H220.659V661.111Z" fill="#1B0B3B"/>
<path d="M385.366 614.633H323.105V630.199H369.801V676.896H385.366V614.633Z" fill="#1B0B3B"/>
<path d="M323.101 661.111H307.316V692.682H338.885V676.896H323.101V661.111Z" fill="#FF5500"/>
<path d="M282.925 717.074H220.664V732.64H267.36V779.338H282.925V717.074Z" fill="#FF5500"/>
<path d="M220.659 763.553H204.875V795.123H236.444V779.338H220.659V763.553Z" fill="#1B0B3B"/>
<path d="M385.366 717.074H323.105V732.64H369.801V779.338H385.366V717.074Z" fill="#1B0B3B"/>
<path d="M323.101 763.553H307.316V795.123H338.885V779.338H323.101V763.553Z" fill="#FF5500"/>
<path d="M282.925 819.514H220.664V835.08H267.36V881.777H282.925V819.514Z" fill="#FF5500"/>
<path d="M220.659 865.992H204.875V897.562H236.444V881.777H220.659V865.992Z" fill="#1B0B3B"/>
<path d="M385.366 819.514H323.105V835.08H369.801V881.777H385.366V819.514Z" fill="#1B0B3B"/>
<path d="M323.101 865.992H307.316V897.562H338.885V881.777H323.101V865.992Z" fill="#FF5500"/>
<path d="M282.925 921.951H220.664V937.517H267.36V984.215H282.925V921.951Z" fill="#FF5500"/>
<path d="M220.659 968.43H204.875V1000H236.444V984.215H220.659V968.43Z" fill="#1B0B3B"/>
<path d="M385.366 921.951H323.105V937.517H369.801V984.215H385.366V921.951Z" fill="#1B0B3B"/>
<path d="M323.101 968.43H307.316V1000H338.885V984.215H323.101V968.43Z" fill="#FF5500"/>
<path d="M487.808 0H425.547V15.5659H472.243V62.2635H487.808V0Z" fill="#FF5500"/>
<path d="M425.542 46.4785H409.758V78.0487H441.327V62.2636H425.542V46.4785Z" fill="#1B0B3B"/>
<path d="M590.247 0H527.986V15.5659H574.682V62.2635H590.247V0Z" fill="#1B0B3B"/>
<path d="M527.982 46.4785H512.197V78.0487H543.766V62.2636H527.982V46.4785Z" fill="#FF5500"/>
<path d="M487.808 102.438H425.547V118.003H472.243V164.701H487.808V102.438Z" fill="#FF5500"/>
<path d="M425.542 148.916H409.758V180.486H441.327V164.701H425.542V148.916Z" fill="#1B0B3B"/>
<path d="M590.247 102.438H527.986V118.003H574.682V164.701H590.247V102.438Z" fill="#1B0B3B"/>
<path d="M527.982 148.916H512.197V180.486H543.766V164.701H527.982V148.916Z" fill="#FF5500"/>
<path d="M487.808 204.875H425.547V220.441H472.243V267.138H487.808V204.875Z" fill="#FF5500"/>
<path d="M425.542 251.354H409.758V282.924H441.327V267.139H425.542V251.354Z" fill="#1B0B3B"/>
<path d="M590.247 204.875H527.986V220.441H574.682V267.138H590.247V204.875Z" fill="#1B0B3B"/>
<path d="M527.982 251.354H512.197V282.924H543.766V267.139H527.982V251.354Z" fill="#FF5500"/>
<path d="M487.808 307.316H425.547V322.882H472.243V369.58H487.808V307.316Z" fill="#FF5500"/>
<path d="M425.542 353.795H409.758V385.365H441.327V369.58H425.542V353.795Z" fill="#1B0B3B"/>
<path d="M590.247 307.316H527.986V322.882H574.682V369.58H590.247V307.316Z" fill="#1B0B3B"/>
<path d="M527.982 353.795H512.197V385.365H543.766V369.58H527.982V353.795Z" fill="#FF5500"/>
<path d="M487.808 409.756H425.547V425.322H472.243V472.019H487.808V409.756Z" fill="#FF5500"/>
<path d="M425.542 456.234H409.758V487.805H441.327V472.019H425.542V456.234Z" fill="#1B0B3B"/>
<path d="M590.247 409.756H527.986V425.322H574.682V472.019H590.247V409.756Z" fill="#1B0B3B"/>
<path d="M527.982 456.234H512.197V487.805H543.766V472.019H527.982V456.234Z" fill="#FF5500"/>
<path d="M487.808 512.193H425.547V527.759H472.243V574.457H487.808V512.193Z" fill="#FF5500"/>
<path d="M425.542 558.672H409.758V590.242H441.327V574.457H425.542V558.672Z" fill="#1B0B3B"/>
<path d="M590.247 512.193H527.986V527.759H574.682V574.457H590.247V512.193Z" fill="#1B0B3B"/>
<path d="M527.982 558.672H512.197V590.242H543.766V574.457H527.982V558.672Z" fill="#FF5500"/>
<path d="M487.808 614.633H425.547V630.199H472.243V676.896H487.808V614.633Z" fill="#FF5500"/>
<path d="M425.542 661.111H409.758V692.682H441.327V676.896H425.542V661.111Z" fill="#1B0B3B"/>
<path d="M590.247 614.633H527.986V630.199H574.682V676.896H590.247V614.633Z" fill="#1B0B3B"/>
<path d="M527.982 661.111H512.197V692.682H543.766V676.896H527.982V661.111Z" fill="#FF5500"/>
<path d="M487.808 717.074H425.547V732.64H472.243V779.338H487.808V717.074Z" fill="#FF5500"/>
<path d="M425.542 763.553H409.758V795.123H441.327V779.338H425.542V763.553Z" fill="#1B0B3B"/>
<path d="M590.247 717.074H527.986V732.64H574.682V779.338H590.247V717.074Z" fill="#1B0B3B"/>
<path d="M527.982 763.553H512.197V795.123H543.766V779.338H527.982V763.553Z" fill="#FF5500"/>
<path d="M487.808 819.514H425.547V835.08H472.243V881.777H487.808V819.514Z" fill="#FF5500"/>
<path d="M425.542 865.992H409.758V897.562H441.327V881.777H425.542V865.992Z" fill="#1B0B3B"/>
<path d="M590.247 819.514H527.986V835.08H574.682V881.777H590.247V819.514Z" fill="#1B0B3B"/>
<path d="M527.982 865.992H512.197V897.562H543.766V881.777H527.982V865.992Z" fill="#FF5500"/>
<path d="M487.808 921.951H425.547V937.517H472.243V984.215H487.808V921.951Z" fill="#FF5500"/>
<path d="M425.542 968.43H409.758V1000H441.327V984.215H425.542V968.43Z" fill="#1B0B3B"/>
<path d="M590.247 921.951H527.986V937.517H574.682V984.215H590.247V921.951Z" fill="#1B0B3B"/>
<path d="M527.982 968.43H512.197V1000H543.766V984.215H527.982V968.43Z" fill="#FF5500"/>
<path d="M692.683 0H630.422V15.5659H677.118V62.2635H692.683V0Z" fill="#FF5500"/>
<path d="M630.417 46.4785H614.633V78.0487H646.202V62.2636H630.417V46.4785Z" fill="#1B0B3B"/>
<path d="M795.124 0H732.863V15.5659H779.559V62.2635H795.124V0Z" fill="#1B0B3B"/>
<path d="M732.859 46.4785H717.074V78.0487H748.643V62.2636H732.859V46.4785Z" fill="#FF5500"/>
<path d="M692.683 102.438H630.422V118.003H677.118V164.701H692.683V102.438Z" fill="#FF5500"/>
<path d="M630.417 148.916H614.633V180.486H646.202V164.701H630.417V148.916Z" fill="#1B0B3B"/>
<path d="M795.124 102.438H732.863V118.003H779.559V164.701H795.124V102.438Z" fill="#1B0B3B"/>
<path d="M732.859 148.916H717.074V180.486H748.643V164.701H732.859V148.916Z" fill="#FF5500"/>
<path d="M692.683 204.875H630.422V220.441H677.118V267.138H692.683V204.875Z" fill="#FF5500"/>
<path d="M630.417 251.354H614.633V282.924H646.202V267.139H630.417V251.354Z" fill="#1B0B3B"/>
<path d="M795.124 204.875H732.863V220.441H779.559V267.138H795.124V204.875Z" fill="#1B0B3B"/>
<path d="M732.859 251.354H717.074V282.924H748.643V267.139H732.859V251.354Z" fill="#FF5500"/>
<path d="M692.683 307.316H630.422V322.882H677.118V369.58H692.683V307.316Z" fill="#FF5500"/>
<path d="M630.417 353.795H614.633V385.365H646.202V369.58H630.417V353.795Z" fill="#1B0B3B"/>
<path d="M795.124 307.316H732.863V322.882H779.559V369.58H795.124V307.316Z" fill="#1B0B3B"/>
<path d="M732.859 353.795H717.074V385.365H748.643V369.58H732.859V353.795Z" fill="#FF5500"/>
<path d="M692.683 409.756H630.422V425.322H677.118V472.019H692.683V409.756Z" fill="#FF5500"/>
<path d="M630.417 456.234H614.633V487.805H646.202V472.019H630.417V456.234Z" fill="#1B0B3B"/>
<path d="M795.124 409.756H732.863V425.322H779.559V472.019H795.124V409.756Z" fill="#1B0B3B"/>
<path d="M732.859 456.234H717.074V487.805H748.643V472.019H732.859V456.234Z" fill="#FF5500"/>
<path d="M692.683 512.193H630.422V527.759H677.118V574.457H692.683V512.193Z" fill="#FF5500"/>
<path d="M630.417 558.672H614.633V590.242H646.202V574.457H630.417V558.672Z" fill="#1B0B3B"/>
<path d="M795.124 512.193H732.863V527.759H779.559V574.457H795.124V512.193Z" fill="#1B0B3B"/>
<path d="M732.859 558.672H717.074V590.242H748.643V574.457H732.859V558.672Z" fill="#FF5500"/>
<path d="M692.683 614.633H630.422V630.199H677.118V676.896H692.683V614.633Z" fill="#FF5500"/>
<path d="M630.417 661.111H614.633V692.682H646.202V676.896H630.417V661.111Z" fill="#1B0B3B"/>
<path d="M795.124 614.633H732.863V630.199H779.559V676.896H795.124V614.633Z" fill="#1B0B3B"/>
<path d="M732.859 661.111H717.074V692.682H748.643V676.896H732.859V661.111Z" fill="#FF5500"/>
<path d="M692.683 717.074H630.422V732.64H677.118V779.338H692.683V717.074Z" fill="#FF5500"/>
<path d="M630.417 763.553H614.633V795.123H646.202V779.338H630.417V763.553Z" fill="#1B0B3B"/>
<path d="M795.124 717.074H732.863V732.64H779.559V779.338H795.124V717.074Z" fill="#1B0B3B"/>
<path d="M732.859 763.553H717.074V795.123H748.643V779.338H732.859V763.553Z" fill="#FF5500"/>
<path d="M692.683 819.514H630.422V835.08H677.118V881.777H692.683V819.514Z" fill="#FF5500"/>
<path d="M630.417 865.992H614.633V897.562H646.202V881.777H630.417V865.992Z" fill="#1B0B3B"/>
<path d="M795.124 819.514H732.863V835.08H779.559V881.777H795.124V819.514Z" fill="#1B0B3B"/>
<path d="M732.859 865.992H717.074V897.562H748.643V881.777H732.859V865.992Z" fill="#FF5500"/>
<path d="M692.683 921.951H630.422V937.517H677.118V984.215H692.683V921.951Z" fill="#FF5500"/>
<path d="M630.417 968.43H614.633V1000H646.202V984.215H630.417V968.43Z" fill="#1B0B3B"/>
<path d="M795.124 921.951H732.863V937.517H779.559V984.215H795.124V921.951Z" fill="#1B0B3B"/>
<path d="M732.859 968.43H717.074V1000H748.643V984.215H732.859V968.43Z" fill="#FF5500"/>
<path d="M897.564 0H835.303V15.5659H881.998V62.2635H897.564V0Z" fill="#FF5500"/>
<path d="M835.298 46.4785H819.514V78.0487H851.083V62.2636H835.298V46.4785Z" fill="#1B0B3B"/>
<path d="M1000 0H937.742V15.5659H984.438V62.2635H1000V0Z" fill="#1B0B3B"/>
<path d="M937.738 46.4785H921.953V78.0487H953.522V62.2636H937.738V46.4785Z" fill="#FF5500"/>
<path d="M897.564 102.438H835.303V118.003H881.998V164.701H897.564V102.438Z" fill="#FF5500"/>
<path d="M835.298 148.916H819.514V180.486H851.083V164.701H835.298V148.916Z" fill="#1B0B3B"/>
<path d="M1000 102.438H937.742V118.003H984.438V164.701H1000V102.438Z" fill="#1B0B3B"/>
<path d="M937.738 148.916H921.953V180.486H953.522V164.701H937.738V148.916Z" fill="#FF5500"/>
<path d="M897.564 204.875H835.303V220.441H881.998V267.138H897.564V204.875Z" fill="#FF5500"/>
<path d="M835.298 251.354H819.514V282.924H851.083V267.139H835.298V251.354Z" fill="#1B0B3B"/>
<path d="M1000 204.875H937.742V220.441H984.438V267.138H1000V204.875Z" fill="#1B0B3B"/>
<path d="M937.738 251.354H921.953V282.924H953.522V267.139H937.738V251.354Z" fill="#FF5500"/>
<path d="M897.564 307.316H835.303V322.882H881.998V369.58H897.564V307.316Z" fill="#FF5500"/>
<path d="M835.298 353.795H819.514V385.365H851.083V369.58H835.298V353.795Z" fill="#1B0B3B"/>
<path d="M1000 307.316H937.742V322.882H984.438V369.58H1000V307.316Z" fill="#1B0B3B"/>
<path d="M937.738 353.795H921.953V385.365H953.522V369.58H937.738V353.795Z" fill="#FF5500"/>
<path d="M897.564 409.756H835.303V425.322H881.998V472.019H897.564V409.756Z" fill="#FF5500"/>
<path d="M835.298 456.234H819.514V487.805H851.083V472.019H835.298V456.234Z" fill="#1B0B3B"/>
<path d="M1000 409.756H937.742V425.322H984.438V472.019H1000V409.756Z" fill="#1B0B3B"/>
<path d="M937.738 456.234H921.953V487.805H953.522V472.019H937.738V456.234Z" fill="#FF5500"/>
<path d="M897.564 512.193H835.303V527.759H881.998V574.457H897.564V512.193Z" fill="#FF5500"/>
<path d="M835.298 558.672H819.514V590.242H851.083V574.457H835.298V558.672Z" fill="#1B0B3B"/>
<path d="M1000 512.193H937.742V527.759H984.438V574.457H1000V512.193Z" fill="#1B0B3B"/>
<path d="M937.738 558.672H921.953V590.242H953.522V574.457H937.738V558.672Z" fill="#FF5500"/>
<path d="M897.564 614.633H835.303V630.199H881.998V676.896H897.564V614.633Z" fill="#FF5500"/>
<path d="M835.298 661.111H819.514V692.682H851.083V676.896H835.298V661.111Z" fill="#1B0B3B"/>
<path d="M1000 614.633H937.742V630.199H984.438V676.896H1000V614.633Z" fill="#1B0B3B"/>
<path d="M937.738 661.111H921.953V692.682H953.522V676.896H937.738V661.111Z" fill="#FF5500"/>
<path d="M897.564 717.074H835.303V732.64H881.998V779.338H897.564V717.074Z" fill="#FF5500"/>
<path d="M835.298 763.553H819.514V795.123H851.083V779.338H835.298V763.553Z" fill="#1B0B3B"/>
<path d="M1000 717.074H937.742V732.64H984.438V779.338H1000V717.074Z" fill="#1B0B3B"/>
<path d="M937.738 763.553H921.953V795.123H953.522V779.338H937.738V763.553Z" fill="#FF5500"/>
<path d="M897.564 819.514H835.303V835.08H881.998V881.777H897.564V819.514Z" fill="#FF5500"/>
<path d="M835.298 865.992H819.514V897.562H851.083V881.777H835.298V865.992Z" fill="#1B0B3B"/>
<path d="M1000 819.514H937.742V835.08H984.438V881.777H1000V819.514Z" fill="#1B0B3B"/>
<path d="M937.738 865.992H921.953V897.562H953.522V881.777H937.738V865.992Z" fill="#FF5500"/>
<path d="M897.564 921.951H835.303V937.517H881.998V984.215H897.564V921.951Z" fill="#FF5500"/>
<path d="M835.298 968.43H819.514V1000H851.083V984.215H835.298V968.43Z" fill="#1B0B3B"/>
<path d="M1000 921.951H937.742V937.517H984.438V984.215H1000V921.951Z" fill="#1B0B3B"/>
<path d="M937.738 968.43H921.953V1000H953.522V984.215H937.738V968.43Z" fill="#FF5500"/>
</svg>
