<svg width="1000" height="1000" viewBox="0 0 1000 1000" fill="none" xmlns="http://www.w3.org/2000/svg">
<path d="M179.999 0H118.102V15.4748H164.525V61.8992H179.999V0Z" fill="#FF5500"/>
<path d="M118.099 46.2051H102.406V77.5906H133.791V61.8978H118.099V46.2051Z" fill="#1B0B3B"/>
<path d="M179.999 179.998H118.102V164.523H164.525V118.099H179.999V179.998Z" fill="#1B0B3B"/>
<path d="M118.099 133.793H102.406V102.407H133.791V118.1H118.099V133.793Z" fill="#FF5500"/>
<path d="M-0.000807762 0H61.8965V15.4748H15.4735V61.8992H-0.000807762V0Z" fill="#1B0B3B"/>
<path d="M61.8976 46.2051H77.5898V77.5906H46.2053V61.8978H61.8976V46.2051Z" fill="#FF5500"/>
<path d="M-0.000807762 180H61.8965V164.525H15.4735V118.101H-0.000807762V180Z" fill="#FF5500"/>
<path d="M61.8976 133.795H77.5898V102.409H46.2053V118.102H61.8976V133.795Z" fill="#1B0B3B"/>
<path d="M179.999 205H118.102V220.475H164.525V266.899H179.999V205Z" fill="#FF5500"/>
<path d="M118.099 251.205H102.406V282.591H133.791V266.898H118.099V251.205Z" fill="#1B0B3B"/>
<path d="M179.999 384.998H118.102V369.523H164.525V323.099H179.999V384.998Z" fill="#1B0B3B"/>
<path d="M118.099 338.793H102.406V307.407H133.791V323.1H118.099V338.793Z" fill="#FF5500"/>
<path d="M-0.000807762 205H61.8965V220.475H15.4735V266.899H-0.000807762V205Z" fill="#1B0B3B"/>
<path d="M61.8976 251.205H77.5898V282.591H46.2053V266.898H61.8976V251.205Z" fill="#FF5500"/>
<path d="M-0.000807762 385H61.8965V369.525H15.4735V323.101H-0.000807762V385Z" fill="#FF5500"/>
<path d="M61.8976 338.795H77.5898V307.409H46.2053V323.102H61.8976V338.795Z" fill="#1B0B3B"/>
<path d="M179.999 410H118.102V425.475H164.525V471.899H179.999V410Z" fill="#FF5500"/>
<path d="M118.099 456.205H102.406V487.591H133.791V471.898H118.099V456.205Z" fill="#1B0B3B"/>
<path d="M179.999 589.998H118.102V574.523H164.525V528.099H179.999V589.998Z" fill="#1B0B3B"/>
<path d="M118.099 543.793H102.406V512.407H133.791V528.1H118.099V543.793Z" fill="#FF5500"/>
<path d="M-0.000807762 410H61.8965V425.475H15.4735V471.899H-0.000807762V410Z" fill="#1B0B3B"/>
<path d="M61.8976 456.205H77.5898V487.591H46.2053V471.898H61.8976V456.205Z" fill="#FF5500"/>
<path d="M-0.000807762 590H61.8965V574.525H15.4735V528.101H-0.000807762V590Z" fill="#FF5500"/>
<path d="M61.8976 543.795H77.5898V512.409H46.2053V528.102H61.8976V543.795Z" fill="#1B0B3B"/>
<path d="M179.999 615H118.102V630.475H164.525V676.899H179.999V615Z" fill="#FF5500"/>
<path d="M118.099 661.205H102.406V692.591H133.791V676.898H118.099V661.205Z" fill="#1B0B3B"/>
<path d="M179.999 794.998H118.102V779.523H164.525V733.099H179.999V794.998Z" fill="#1B0B3B"/>
<path d="M118.099 748.793H102.406V717.407H133.791V733.1H118.099V748.793Z" fill="#FF5500"/>
<path d="M-0.000807762 615H61.8965V630.475H15.4735V676.899H-0.000807762V615Z" fill="#1B0B3B"/>
<path d="M61.8976 661.205H77.5898V692.591H46.2053V676.898H61.8976V661.205Z" fill="#FF5500"/>
<path d="M-0.000807762 795H61.8965V779.525H15.4735V733.101H-0.000807762V795Z" fill="#FF5500"/>
<path d="M61.8976 748.795H77.5898V717.409H46.2053V733.102H61.8976V748.795Z" fill="#1B0B3B"/>
<path d="M179.999 820H118.102V835.475H164.525V881.899H179.999V820Z" fill="#FF5500"/>
<path d="M118.099 866.205H102.406V897.591H133.791V881.898H118.099V866.205Z" fill="#1B0B3B"/>
<path d="M179.999 999.998H118.102V984.523H164.525V938.099H179.999V999.998Z" fill="#1B0B3B"/>
<path d="M118.099 953.793H102.406V922.407H133.791V938.1H118.099V953.793Z" fill="#FF5500"/>
<path d="M-0.000807762 820H61.8965V835.475H15.4735V881.899H-0.000807762V820Z" fill="#1B0B3B"/>
<path d="M61.8976 866.205H77.5898V897.591H46.2053V881.898H61.8976V866.205Z" fill="#FF5500"/>
<path d="M-0.000807762 1000H61.8965V984.525H15.4735V938.101H-0.000807762V1000Z" fill="#FF5500"/>
<path d="M61.8976 953.795H77.5898V922.409H46.2053V938.102H61.8976V953.795Z" fill="#1B0B3B"/>
<path d="M589.999 0H528.102V15.4748H574.525V61.8992H589.999V0Z" fill="#FF5500"/>
<path d="M528.099 46.2051H512.406V77.5906H543.791V61.8978H528.099V46.2051Z" fill="#1B0B3B"/>
<path d="M589.999 179.998H528.102V164.523H574.525V118.099H589.999V179.998Z" fill="#1B0B3B"/>
<path d="M528.099 133.793H512.406V102.407H543.791V118.1H528.099V133.793Z" fill="#FF5500"/>
<path d="M409.999 0H471.896V15.4748H425.474V61.8992H409.999V0Z" fill="#1B0B3B"/>
<path d="M471.898 46.2051H487.59V77.5906H456.205V61.8978H471.898V46.2051Z" fill="#FF5500"/>
<path d="M409.999 180H471.896V164.525H425.474V118.101H409.999V180Z" fill="#FF5500"/>
<path d="M471.898 133.795H487.59V102.409H456.205V118.102H471.898V133.795Z" fill="#1B0B3B"/>
<path d="M589.999 205H528.102V220.475H574.525V266.899H589.999V205Z" fill="#FF5500"/>
<path d="M528.099 251.205H512.406V282.591H543.791V266.898H528.099V251.205Z" fill="#1B0B3B"/>
<path d="M589.999 384.998H528.102V369.523H574.525V323.099H589.999V384.998Z" fill="#1B0B3B"/>
<path d="M528.099 338.793H512.406V307.407H543.791V323.1H528.099V338.793Z" fill="#FF5500"/>
<path d="M409.999 205H471.896V220.475H425.474V266.899H409.999V205Z" fill="#1B0B3B"/>
<path d="M471.898 251.205H487.59V282.591H456.205V266.898H471.898V251.205Z" fill="#FF5500"/>
<path d="M409.999 385H471.896V369.525H425.474V323.101H409.999V385Z" fill="#FF5500"/>
<path d="M471.898 338.795H487.59V307.409H456.205V323.102H471.898V338.795Z" fill="#1B0B3B"/>
<path d="M589.999 410H528.102V425.475H574.525V471.899H589.999V410Z" fill="#FF5500"/>
<path d="M528.099 456.205H512.406V487.591H543.791V471.898H528.099V456.205Z" fill="#1B0B3B"/>
<path d="M589.999 589.998H528.102V574.523H574.525V528.099H589.999V589.998Z" fill="#1B0B3B"/>
<path d="M528.099 543.793H512.406V512.407H543.791V528.1H528.099V543.793Z" fill="#FF5500"/>
<path d="M409.999 410H471.896V425.475H425.474V471.899H409.999V410Z" fill="#1B0B3B"/>
<path d="M471.898 456.205H487.59V487.591H456.205V471.898H471.898V456.205Z" fill="#FF5500"/>
<path d="M409.999 590H471.896V574.525H425.474V528.101H409.999V590Z" fill="#FF5500"/>
<path d="M471.898 543.795H487.59V512.409H456.205V528.102H471.898V543.795Z" fill="#1B0B3B"/>
<path d="M589.999 615H528.102V630.475H574.525V676.899H589.999V615Z" fill="#FF5500"/>
<path d="M528.099 661.205H512.406V692.591H543.791V676.898H528.099V661.205Z" fill="#1B0B3B"/>
<path d="M589.999 794.998H528.102V779.523H574.525V733.099H589.999V794.998Z" fill="#1B0B3B"/>
<path d="M528.099 748.793H512.406V717.407H543.791V733.1H528.099V748.793Z" fill="#FF5500"/>
<path d="M409.999 615H471.896V630.475H425.474V676.899H409.999V615Z" fill="#1B0B3B"/>
<path d="M471.898 661.205H487.59V692.591H456.205V676.898H471.898V661.205Z" fill="#FF5500"/>
<path d="M409.999 795H471.896V779.525H425.474V733.101H409.999V795Z" fill="#FF5500"/>
<path d="M471.898 748.795H487.59V717.409H456.205V733.102H471.898V748.795Z" fill="#1B0B3B"/>
<path d="M589.999 820H528.102V835.475H574.525V881.899H589.999V820Z" fill="#FF5500"/>
<path d="M528.099 866.205H512.406V897.591H543.791V881.898H528.099V866.205Z" fill="#1B0B3B"/>
<path d="M589.999 999.998H528.102V984.523H574.525V938.099H589.999V999.998Z" fill="#1B0B3B"/>
<path d="M528.099 953.793H512.406V922.407H543.791V938.1H528.099V953.793Z" fill="#FF5500"/>
<path d="M409.999 820H471.896V835.475H425.474V881.899H409.999V820Z" fill="#1B0B3B"/>
<path d="M471.898 866.205H487.59V897.591H456.205V881.898H471.898V866.205Z" fill="#FF5500"/>
<path d="M409.999 1000H471.896V984.525H425.474V938.101H409.999V1000Z" fill="#FF5500"/>
<path d="M471.898 953.795H487.59V922.409H456.205V938.102H471.898V953.795Z" fill="#1B0B3B"/>
<path d="M999.999 0H938.102V15.4748H984.525V61.8992H999.999V0Z" fill="#FF5500"/>
<path d="M938.099 46.2051H922.406V77.5906H953.791V61.8978H938.099V46.2051Z" fill="#1B0B3B"/>
<path d="M999.999 179.998H938.102V164.523H984.525V118.099H999.999V179.998Z" fill="#1B0B3B"/>
<path d="M938.099 133.793H922.406V102.407H953.791V118.1H938.099V133.793Z" fill="#FF5500"/>
<path d="M819.999 0H881.896V15.4748H835.474V61.8992H819.999V0Z" fill="#1B0B3B"/>
<path d="M881.898 46.2051H897.59V77.5906H866.205V61.8978H881.898V46.2051Z" fill="#FF5500"/>
<path d="M819.999 180H881.896V164.525H835.474V118.101H819.999V180Z" fill="#FF5500"/>
<path d="M881.898 133.795H897.59V102.409H866.205V118.102H881.898V133.795Z" fill="#1B0B3B"/>
<path d="M999.999 205H938.102V220.475H984.525V266.899H999.999V205Z" fill="#FF5500"/>
<path d="M938.099 251.205H922.406V282.591H953.791V266.898H938.099V251.205Z" fill="#1B0B3B"/>
<path d="M999.999 384.998H938.102V369.523H984.525V323.099H999.999V384.998Z" fill="#1B0B3B"/>
<path d="M938.099 338.793H922.406V307.407H953.791V323.1H938.099V338.793Z" fill="#FF5500"/>
<path d="M819.999 205H881.896V220.475H835.474V266.899H819.999V205Z" fill="#1B0B3B"/>
<path d="M881.898 251.205H897.59V282.591H866.205V266.898H881.898V251.205Z" fill="#FF5500"/>
<path d="M819.999 385H881.896V369.525H835.474V323.101H819.999V385Z" fill="#FF5500"/>
<path d="M881.898 338.795H897.59V307.409H866.205V323.102H881.898V338.795Z" fill="#1B0B3B"/>
<path d="M999.999 410H938.102V425.475H984.525V471.899H999.999V410Z" fill="#FF5500"/>
<path d="M938.099 456.205H922.406V487.591H953.791V471.898H938.099V456.205Z" fill="#1B0B3B"/>
<path d="M999.999 589.998H938.102V574.523H984.525V528.099H999.999V589.998Z" fill="#1B0B3B"/>
<path d="M938.099 543.793H922.406V512.407H953.791V528.1H938.099V543.793Z" fill="#FF5500"/>
<path d="M819.999 410H881.896V425.475H835.474V471.899H819.999V410Z" fill="#1B0B3B"/>
<path d="M881.898 456.205H897.59V487.591H866.205V471.898H881.898V456.205Z" fill="#FF5500"/>
<path d="M819.999 590H881.896V574.525H835.474V528.101H819.999V590Z" fill="#FF5500"/>
<path d="M881.898 543.795H897.59V512.409H866.205V528.102H881.898V543.795Z" fill="#1B0B3B"/>
<path d="M999.999 615H938.102V630.475H984.525V676.899H999.999V615Z" fill="#FF5500"/>
<path d="M938.099 661.205H922.406V692.591H953.791V676.898H938.099V661.205Z" fill="#1B0B3B"/>
<path d="M999.999 794.998H938.102V779.523H984.525V733.099H999.999V794.998Z" fill="#1B0B3B"/>
<path d="M938.099 748.793H922.406V717.407H953.791V733.1H938.099V748.793Z" fill="#FF5500"/>
<path d="M819.999 615H881.896V630.475H835.474V676.899H819.999V615Z" fill="#1B0B3B"/>
<path d="M881.898 661.205H897.59V692.591H866.205V676.898H881.898V661.205Z" fill="#FF5500"/>
<path d="M819.999 795H881.896V779.525H835.474V733.101H819.999V795Z" fill="#FF5500"/>
<path d="M881.898 748.795H897.59V717.409H866.205V733.102H881.898V748.795Z" fill="#1B0B3B"/>
<path d="M999.999 820H938.102V835.475H984.525V881.899H999.999V820Z" fill="#FF5500"/>
<path d="M938.099 866.205H922.406V897.591H953.791V881.898H938.099V866.205Z" fill="#1B0B3B"/>
<path d="M999.999 999.998H938.102V984.523H984.525V938.099H999.999V999.998Z" fill="#1B0B3B"/>
<path d="M938.099 953.793H922.406V922.407H953.791V938.1H938.099V953.793Z" fill="#FF5500"/>
<path d="M819.999 820H881.896V835.475H835.474V881.899H819.999V820Z" fill="#1B0B3B"/>
<path d="M881.898 866.205H897.59V897.591H866.205V881.898H881.898V866.205Z" fill="#FF5500"/>
<path d="M819.999 1000H881.896V984.525H835.474V938.101H819.999V1000Z" fill="#FF5500"/>
<path d="M881.898 953.795H897.59V922.409H866.205V938.102H881.898V953.795Z" fill="#1B0B3B"/>
<path d="M384.999 0H323.102V15.4748H369.525V61.8992H384.999V0Z" fill="#FF5500"/>
<path d="M323.099 46.2051H307.406V77.5906H338.791V61.8978H323.099V46.2051Z" fill="#1B0B3B"/>
<path d="M384.999 179.998H323.102V164.523H369.525V118.099H384.999V179.998Z" fill="#1B0B3B"/>
<path d="M323.099 133.793H307.406V102.407H338.791V118.1H323.099V133.793Z" fill="#FF5500"/>
<path d="M204.999 0H266.896V15.4748H220.474V61.8992H204.999V0Z" fill="#1B0B3B"/>
<path d="M266.898 46.2051H282.59V77.5906H251.205V61.8978H266.898V46.2051Z" fill="#FF5500"/>
<path d="M204.999 180H266.896V164.525H220.474V118.101H204.999V180Z" fill="#FF5500"/>
<path d="M266.898 133.795H282.59V102.409H251.205V118.102H266.898V133.795Z" fill="#1B0B3B"/>
<path d="M384.999 205H323.102V220.475H369.525V266.899H384.999V205Z" fill="#FF5500"/>
<path d="M323.099 251.205H307.406V282.591H338.791V266.898H323.099V251.205Z" fill="#1B0B3B"/>
<path d="M384.999 384.998H323.102V369.523H369.525V323.099H384.999V384.998Z" fill="#1B0B3B"/>
<path d="M323.099 338.793H307.406V307.407H338.791V323.1H323.099V338.793Z" fill="#FF5500"/>
<path d="M204.999 205H266.896V220.475H220.474V266.899H204.999V205Z" fill="#1B0B3B"/>
<path d="M266.898 251.205H282.59V282.591H251.205V266.898H266.898V251.205Z" fill="#FF5500"/>
<path d="M204.999 385H266.896V369.525H220.474V323.101H204.999V385Z" fill="#FF5500"/>
<path d="M266.898 338.795H282.59V307.409H251.205V323.102H266.898V338.795Z" fill="#1B0B3B"/>
<path d="M384.999 410H323.102V425.475H369.525V471.899H384.999V410Z" fill="#FF5500"/>
<path d="M323.099 456.205H307.406V487.591H338.791V471.898H323.099V456.205Z" fill="#1B0B3B"/>
<path d="M384.999 589.998H323.102V574.523H369.525V528.099H384.999V589.998Z" fill="#1B0B3B"/>
<path d="M323.099 543.793H307.406V512.407H338.791V528.1H323.099V543.793Z" fill="#FF5500"/>
<path d="M204.999 410H266.896V425.475H220.474V471.899H204.999V410Z" fill="#1B0B3B"/>
<path d="M266.898 456.205H282.59V487.591H251.205V471.898H266.898V456.205Z" fill="#FF5500"/>
<path d="M204.999 590H266.896V574.525H220.474V528.101H204.999V590Z" fill="#FF5500"/>
<path d="M266.898 543.795H282.59V512.409H251.205V528.102H266.898V543.795Z" fill="#1B0B3B"/>
<path d="M384.999 615H323.102V630.475H369.525V676.899H384.999V615Z" fill="#FF5500"/>
<path d="M323.099 661.205H307.406V692.591H338.791V676.898H323.099V661.205Z" fill="#1B0B3B"/>
<path d="M384.999 794.998H323.102V779.523H369.525V733.099H384.999V794.998Z" fill="#1B0B3B"/>
<path d="M323.099 748.793H307.406V717.407H338.791V733.1H323.099V748.793Z" fill="#FF5500"/>
<path d="M204.999 615H266.896V630.475H220.474V676.899H204.999V615Z" fill="#1B0B3B"/>
<path d="M266.898 661.205H282.59V692.591H251.205V676.898H266.898V661.205Z" fill="#FF5500"/>
<path d="M204.999 795H266.896V779.525H220.474V733.101H204.999V795Z" fill="#FF5500"/>
<path d="M266.898 748.795H282.59V717.409H251.205V733.102H266.898V748.795Z" fill="#1B0B3B"/>
<path d="M384.999 820H323.102V835.475H369.525V881.899H384.999V820Z" fill="#FF5500"/>
<path d="M323.099 866.205H307.406V897.591H338.791V881.898H323.099V866.205Z" fill="#1B0B3B"/>
<path d="M384.999 999.998H323.102V984.523H369.525V938.099H384.999V999.998Z" fill="#1B0B3B"/>
<path d="M323.099 953.793H307.406V922.407H338.791V938.1H323.099V953.793Z" fill="#FF5500"/>
<path d="M204.999 820H266.896V835.475H220.474V881.899H204.999V820Z" fill="#1B0B3B"/>
<path d="M266.898 866.205H282.59V897.591H251.205V881.898H266.898V866.205Z" fill="#FF5500"/>
<path d="M204.999 1000H266.896V984.525H220.474V938.101H204.999V1000Z" fill="#FF5500"/>
<path d="M266.898 953.795H282.59V922.409H251.205V938.102H266.898V953.795Z" fill="#1B0B3B"/>
<path d="M794.999 0H733.102V15.4748H779.525V61.8992H794.999V0Z" fill="#FF5500"/>
<path d="M733.099 46.2051H717.406V77.5906H748.791V61.8978H733.099V46.2051Z" fill="#1B0B3B"/>
<path d="M794.999 179.998H733.102V164.523H779.525V118.099H794.999V179.998Z" fill="#1B0B3B"/>
<path d="M733.099 133.793H717.406V102.407H748.791V118.1H733.099V133.793Z" fill="#FF5500"/>
<path d="M614.999 0H676.896V15.4748H630.474V61.8992H614.999V0Z" fill="#1B0B3B"/>
<path d="M676.898 46.2051H692.59V77.5906H661.205V61.8978H676.898V46.2051Z" fill="#FF5500"/>
<path d="M614.999 180H676.896V164.525H630.474V118.101H614.999V180Z" fill="#FF5500"/>
<path d="M676.898 133.795H692.59V102.409H661.205V118.102H676.898V133.795Z" fill="#1B0B3B"/>
<path d="M794.999 205H733.102V220.475H779.525V266.899H794.999V205Z" fill="#FF5500"/>
<path d="M733.099 251.205H717.406V282.591H748.791V266.898H733.099V251.205Z" fill="#1B0B3B"/>
<path d="M794.999 384.998H733.102V369.523H779.525V323.099H794.999V384.998Z" fill="#1B0B3B"/>
<path d="M733.099 338.793H717.406V307.407H748.791V323.1H733.099V338.793Z" fill="#FF5500"/>
<path d="M614.999 205H676.896V220.475H630.474V266.899H614.999V205Z" fill="#1B0B3B"/>
<path d="M676.898 251.205H692.59V282.591H661.205V266.898H676.898V251.205Z" fill="#FF5500"/>
<path d="M614.999 385H676.896V369.525H630.474V323.101H614.999V385Z" fill="#FF5500"/>
<path d="M676.898 338.795H692.59V307.409H661.205V323.102H676.898V338.795Z" fill="#1B0B3B"/>
<path d="M794.999 410H733.102V425.475H779.525V471.899H794.999V410Z" fill="#FF5500"/>
<path d="M733.099 456.205H717.406V487.591H748.791V471.898H733.099V456.205Z" fill="#1B0B3B"/>
<path d="M794.999 589.998H733.102V574.523H779.525V528.099H794.999V589.998Z" fill="#1B0B3B"/>
<path d="M733.099 543.793H717.406V512.407H748.791V528.1H733.099V543.793Z" fill="#FF5500"/>
<path d="M614.999 410H676.896V425.475H630.474V471.899H614.999V410Z" fill="#1B0B3B"/>
<path d="M676.898 456.205H692.59V487.591H661.205V471.898H676.898V456.205Z" fill="#FF5500"/>
<path d="M614.999 590H676.896V574.525H630.474V528.101H614.999V590Z" fill="#FF5500"/>
<path d="M676.898 543.795H692.59V512.409H661.205V528.102H676.898V543.795Z" fill="#1B0B3B"/>
<path d="M794.999 615H733.102V630.475H779.525V676.899H794.999V615Z" fill="#FF5500"/>
<path d="M733.099 661.205H717.406V692.591H748.791V676.898H733.099V661.205Z" fill="#1B0B3B"/>
<path d="M794.999 794.998H733.102V779.523H779.525V733.099H794.999V794.998Z" fill="#1B0B3B"/>
<path d="M733.099 748.793H717.406V717.407H748.791V733.1H733.099V748.793Z" fill="#FF5500"/>
<path d="M614.999 615H676.896V630.475H630.474V676.899H614.999V615Z" fill="#1B0B3B"/>
<path d="M676.898 661.205H692.59V692.591H661.205V676.898H676.898V661.205Z" fill="#FF5500"/>
<path d="M614.999 795H676.896V779.525H630.474V733.101H614.999V795Z" fill="#FF5500"/>
<path d="M676.898 748.795H692.59V717.409H661.205V733.102H676.898V748.795Z" fill="#1B0B3B"/>
<path d="M794.999 820H733.102V835.475H779.525V881.899H794.999V820Z" fill="#FF5500"/>
<path d="M733.099 866.205H717.406V897.591H748.791V881.898H733.099V866.205Z" fill="#1B0B3B"/>
<path d="M794.999 999.998H733.102V984.523H779.525V938.099H794.999V999.998Z" fill="#1B0B3B"/>
<path d="M733.099 953.793H717.406V922.407H748.791V938.1H733.099V953.793Z" fill="#FF5500"/>
<path d="M614.999 820H676.896V835.475H630.474V881.899H614.999V820Z" fill="#1B0B3B"/>
<path d="M676.898 866.205H692.59V897.591H661.205V881.898H676.898V866.205Z" fill="#FF5500"/>
<path d="M614.999 1000H676.896V984.525H630.474V938.101H614.999V1000Z" fill="#FF5500"/>
<path d="M676.898 953.795H692.59V922.409H661.205V938.102H676.898V953.795Z" fill="#1B0B3B"/>
</svg>
